<?xml version="1.0" encoding="utf-8"?>
<!-- Generator: Adobe Illustrator 26.0.3, SVG Export Plug-In . SVG Version: 6.00 Build 0)  -->
<svg version="1.1" id="Layer_1" xmlns="http://www.w3.org/2000/svg" xmlns:xlink="http://www.w3.org/1999/xlink" x="0px" y="0px"
	 viewBox="0 0 1024 1026" style="enable-background:new 0 0 1024 1026;" xml:space="preserve">
<style type="text/css">
	.st0{fill:#353535;}
	.st1{fill-rule:evenodd;clip-rule:evenodd;fill:url(#SVGID_1_);}
	.st2{fill:url(#path16_00000049901406368808046000000017531375348279593909_);}
	.st3{fill:#E0E0E0;}
</style>
<path id="path16_00000168835973237026095170000003663496251490226603_" class="st0" d="M913,367.8c0-9.8,0-18.3-0.1-28.1
	c0-8.2-0.1-16.5-0.4-24.7c-0.5-18-1.5-36.1-4.7-53.8c-3.2-18-8.5-34.8-16.9-51.1c-8.2-16.1-18.9-30.8-31.7-43.6
	s-27.5-23.4-43.6-31.6c-16.4-8.3-33.2-13.6-51.2-16.9c-17.8-3.2-35.9-4.2-53.8-4.7c-8.2-0.2-16.5-0.3-24.7-0.4
	c-9.8-0.1-19.6-0.1-29.4-0.1L543,112.4h-85l-111.6,0.4c-9.8,0-19.6,0-29.4,0.1c-8.3,0.1-16.5,0.1-24.8,0.4
	c-18,0.5-36.1,1.5-53.9,4.7c-18.1,3.2-34.9,8.5-51.3,16.8c-16.1,8.2-30.9,18.9-43.7,31.6c-12.8,12.8-23.5,27.5-31.7,43.6
	c-8.4,16.4-13.7,33.1-16.9,51.2C91.5,278.9,90.4,297,90,315c-0.2,8.2-0.3,16.5-0.4,24.7c-0.1,9.8-0.6,21.9-0.6,31.7v196l0.5,112.4
	c0,9.8,0,19.6,0.1,29.4c0,8.3,0.1,16.5,0.4,24.8c0.5,18,1.5,36.1,4.7,53.9c3.2,18,8.5,34.8,16.9,51.2c8.2,16.1,18.9,30.8,31.7,43.6
	s27.5,23.5,43.7,31.7c16.4,8.3,33.2,13.6,51.3,16.9c17.8,3.2,35.9,4.3,53.9,4.7c8.3,0.2,16.5,0.3,24.8,0.4
	c9.8,0.1,19.6,0.1,29.4,0.1h310.3c9.8,0,19.6,0,29.4-0.1c8.2,0,16.5-0.1,24.7-0.4c18-0.5,36.1-1.5,53.8-4.7
	c18-3.2,34.8-8.5,51.2-16.9c16.1-8.2,30.8-18.9,43.6-31.7s23.5-27.5,31.7-43.6c8.3-16.4,13.6-33.2,16.9-51.2
	c3.2-17.8,4.2-35.9,4.7-53.9c0.2-8.2,0.3-16.5,0.4-24.8c0.1-9.8,0.1-19.6,0.1-29.4v-312L913,367.8L913,367.8z"/>
<g>
	
		<linearGradient id="SVGID_1_" gradientUnits="userSpaceOnUse" x1="512.05" y1="-92" x2="512.05" y2="-1478.28" gradientTransform="matrix(1 0 0 -1 0 8)">
		<stop  offset="0" style="stop-color:#FFFFFF"/>
		<stop  offset="0.4895" style="stop-color:#EFEFEF"/>
		<stop  offset="1" style="stop-color:#C0C0C0"/>
	</linearGradient>
	<path class="st1" d="M924,356.6c0-9.8,0-19.6-0.1-29.3c0-8.2-0.1-16.5-0.4-24.7c-0.5-18-1.5-36.1-4.7-53.8
		c-3.2-18-8.5-34.8-16.9-51.1c-8.2-16.1-18.9-30.8-31.7-43.6s-27.5-23.5-43.6-31.6c-16.4-8.3-33.2-13.6-51.2-16.9
		c-17.8-3.2-35.9-4.2-53.8-4.7c-8.2-0.2-16.5-0.3-24.7-0.4c-9.8-0.1-19.6-0.1-29.4-0.1L554,100h-85l-111.6,0.4
		c-9.8,0-19.6,0-29.4,0.1c-8.3,0.1-16.5,0.1-24.8,0.4c-18,0.5-36.1,1.5-53.9,4.7c-18.1,3.2-34.9,8.5-51.3,16.8
		c-16.1,8.2-30.9,18.9-43.7,31.6c-12.8,12.8-23.5,27.5-31.7,43.6c-8.4,16.4-13.7,33.1-16.9,51.2c-3.2,17.7-4.3,35.8-4.7,53.8
		c-0.2,8.2-0.3,16.5-0.4,24.7c-0.1,9.8-0.6,21.9-0.6,31.7v110.1V555l0.5,112.4c0,9.8,0,19.6,0.1,29.4c0,8.3,0.1,16.5,0.4,24.8
		c0.5,18,1.5,36.1,4.7,53.9c3.2,18,8.5,34.8,16.9,51.2c8.2,16.1,18.9,30.8,31.7,43.6s27.5,23.5,43.7,31.7
		c16.4,8.3,33.2,13.6,51.3,16.9c17.8,3.2,35.9,4.3,53.9,4.7c8.3,0.2,16.5,0.3,24.8,0.4c9.8,0.1,19.6,0.1,29.4,0.1H470h85.2h112.4
		c9.8,0,19.6,0,29.4-0.1c8.2,0,16.5-0.1,24.7-0.4c18-0.5,36.1-1.5,53.8-4.7c18-3.2,34.8-8.5,51.2-16.9c16.1-8.2,30.8-18.9,43.6-31.7
		s23.5-27.5,31.7-43.6c8.3-16.4,13.6-33.2,16.9-51.2c3.2-17.8,4.2-35.9,4.7-53.9c0.2-8.2,0.3-16.5,0.4-24.8
		c0.1-9.8,0.1-19.6,0.1-29.4c0,0,0-110.4,0-112.4v-86C924,467.5,924,356.6,924,356.6z"/>
</g>
<radialGradient id="path16_00000000201037037009064930000017321345871664404157_" cx="512.5" cy="-503.95" r="412.075" gradientTransform="matrix(1 0 0 -1 0 8)" gradientUnits="userSpaceOnUse">
	<stop  offset="0" style="stop-color:#7B79B9"/>
	<stop  offset="1" style="stop-color:#6966B2"/>
</radialGradient>
<path id="path16" style="fill:url(#path16_00000000201037037009064930000017321345871664404157_);" d="M924.4,355.3
	c0-9.8,0-18.3-0.1-28.1c0-8.2-0.1-16.5-0.4-24.7c-0.5-18-1.5-36.1-4.7-53.8c-3.2-18-8.5-34.8-16.9-51.1
	c-8.2-16.1-18.9-30.8-31.7-43.6s-27.5-23.4-43.6-31.6c-16.4-8.3-33.2-13.6-51.2-16.9c-17.8-3.2-35.9-4.2-53.8-4.7
	c-8.2-0.2-16.5-0.3-24.7-0.4c-9.8-0.1-19.6-0.1-29.4-0.1l-113.5-0.4h-85l-111.6,0.4c-9.8,0-19.6,0-29.4,0.1
	c-8.3,0.1-16.5,0.1-24.8,0.4c-18,0.5-36.1,1.5-53.9,4.7c-18.1,3.2-34.9,8.5-51.3,16.8c-16.1,8.2-30.9,18.9-43.7,31.6
	c-12.8,12.8-23.5,27.5-31.7,43.6c-8.4,16.4-13.7,33.1-16.9,51.2c-3.2,17.7-4.3,35.8-4.7,53.8c-0.2,8.2-0.3,16.5-0.4,24.7
	c-0.1,9.8-0.6,21.9-0.6,31.7v196l0.5,112.4c0,9.8,0,19.6,0.1,29.4c0,8.3,0.1,16.5,0.4,24.8c0.5,18,1.5,36.1,4.7,53.9
	c3.2,18,8.5,34.8,16.9,51.2c8.2,16.1,18.9,30.8,31.7,43.6s27.5,23.5,43.7,31.7c16.4,8.3,33.2,13.6,51.3,16.9
	c17.8,3.2,35.9,4.3,53.9,4.7c8.3,0.2,16.5,0.3,24.8,0.4c9.8,0.1,19.6,0.1,29.4,0.1h310.3c9.8,0,19.6,0,29.4-0.1
	c8.2,0,16.5-0.1,24.7-0.4c18-0.5,36.1-1.5,53.8-4.7c18-3.2,34.8-8.5,51.2-16.9c16.1-8.2,30.8-18.9,43.6-31.7s23.5-27.5,31.7-43.6
	c8.3-16.4,13.6-33.2,16.9-51.2c3.2-17.8,4.2-35.9,4.7-53.9c0.2-8.2,0.3-16.5,0.4-24.8c0.1-9.8,0.1-19.6,0.1-29.4v-312L924.4,355.3
	L924.4,355.3z"/>
<g>
	<path d="M339.6,966.2c49.4-12.6,98.6-25.2,148.1-38c55.4-14.2,110.5-30.2,164.9-49c6.7-2.1,13.4-4.8,19.5-8
		c4.2-2.1,11.4-2.9,9.9-9.6c-1.2-5.9-7.9-5.6-12.6-5.9c-33.4-2.1-66.8-0.5-99.6,2.9c-79.1,8.3-156.5,1.9-232.2-25.7
		c-43.3-15.8-86-31.3-124.6-58.1c-16.8-11.5-31.9-25.4-43.8-42.6c-25.7-35.9-26.2-73.9-2.5-111.1c20.3-31.3,48.2-51.9,78.9-69.9
		c40.1-23.3,82.1-40.4,126.3-51.1c49.2-11.8,99.1-15.8,149.3-13.9c3.2,0,6.2,0,9.6-1.6c-10.6-3.7-21.5-7.2-32.1-11.5
		c-65.5-26.8-128.8-58.6-183.9-106c-21.8-18.5-40.1-40.7-55.9-65.3c-21.5-33.5-3.2-64.8,23.5-79c27.2-14.5,57.4-17.1,87-19.3
		c68-4.8,135.7-10.7,203.5-20.6c20-2.9,40.1-4.8,59.3-11.5c4.7-1.6,9.4-3.5,13.6-5.9c6.4-3.7,14.1-7.8,13.4-17.4
		c-0.7-8.8-7.2-13.6-14.3-16.9c-21-9.6-43.5-9.1-65.5-9.9c-40.5-1.3-81.3-0.5-122.1-0.8c-4.7,0-9.4,0-14.6-2.4
		c30.2-8.8,60.3-17.9,90.5-26.8c36.8-10.4,73.4-22.7,111.3-28.1c47.5-6.7,89.5,6.4,120.9,47.9c13.1,17.4,18.5,38.5,19.3,60.8
		c1.2,41.2-25.5,72.5-69,81.6c-23.5,5.1-47.5,4-71.2,5.1c-61.3,2.7-121.9,10.2-181.2,27.3c-12.1,3.5-23.2,8.6-33.4,16.6
		c-17.6,14.5-18.5,30-2.7,46.8c12.4,12.8,26.9,21.9,42,29.7c64,33.2,128.1,66.1,192.1,99.3c18.8,9.6,37.3,19.8,58.1,30.8
		c-35.6,9.4-69,17.7-102.1,27.3c-57.4,16.3-115.7,30-170.1,57c-29.9,15-57.9,33.5-80.1,60.8c-9.4,11.5-16.8,24.1-18.5,39.9
		c-1.7,15,3.2,26.8,15.1,35.3c28.9,21.1,61.8,30.2,95.4,36.9c53.2,10.4,106.8,12.8,160.7,13.4c48.5,0.3,96.9,1.1,145.1,5.4
		c25,2.1,49.2,8,72.4,17.9c6.7,2.9,12.6,6.4,16.8,12.8c8.2,12.3,4.7,25.2-9.1,37.7c-17.1,15.5-36.8,26.2-57.4,34.8
		c-71.5,29.2-145.4,47.1-220.8,59.4c-71.2,11.8-142.4,21.7-214.6,19.5c-4.4,0-8.7,0-13.1,0C339.6,967.6,339.6,966.8,339.6,966.2z"/>
</g>
<g>
	<path class="st3" d="M348.1,946.4c49.4-12.6,98.6-25.2,148.1-38c55.4-14.2,110.5-30.2,164.9-49c6.7-2.1,13.4-4.8,19.5-8
		c4.2-2.1,11.4-2.9,9.9-9.6c-1.2-5.9-7.9-5.6-12.6-5.9c-33.4-2.1-66.8-0.5-99.6,2.9c-79.1,8.3-156.5,1.9-232.2-25.7
		c-43.3-15.8-86-31.3-124.6-58.1c-16.8-11.5-31.9-25.4-43.8-42.6c-25.7-35.9-26.2-73.9-2.5-111.1c20.3-31.3,48.2-51.9,78.9-69.9
		c40.1-23.3,82.1-40.4,126.3-51.1c49.2-11.8,99.1-15.8,149.3-13.9c3.2,0,6.2,0,9.6-1.6c-10.6-3.7-21.5-7.2-32.1-11.5
		c-65.5-26.8-128.8-58.6-183.9-106c-21.8-18.5-40.1-40.7-55.9-65.3c-21.5-33.5-3.2-64.8,23.5-79c27.2-14.5,57.4-17.1,87-19.3
		c68-4.8,135.7-10.7,203.5-20.6c20-2.9,40.1-4.8,59.3-11.5c4.7-1.6,9.4-3.5,13.6-5.9c6.4-3.7,14.1-7.8,13.4-17.4
		c-0.7-8.8-7.2-13.6-14.3-16.9c-21-9.6-43.5-9.1-65.5-9.9c-40.5-1.3-81.3-0.5-122.1-0.8c-4.7,0-9.4,0-14.6-2.4
		c30.2-8.8,60.3-17.9,90.5-26.8C578.6,61.3,615.2,49,653,43.7c47.5-6.7,89.5,6.4,120.9,47.9c13.1,17.4,18.5,38.5,19.3,60.8
		c1.2,41.2-25.5,72.5-69,81.6c-23.5,5.1-47.5,4-71.2,5.1c-61.3,2.7-121.9,10.2-181.2,27.3c-12.1,3.5-23.2,8.6-33.4,16.6
		c-17.6,14.5-18.5,30-2.7,46.8c12.4,12.8,26.9,21.9,42,29.7c64,33.2,128.1,66.1,192.1,99.3c18.8,9.6,37.3,19.8,58.1,30.8
		c-35.6,9.4-69,17.7-102.1,27.3c-57.4,16.3-115.7,30-170.1,57c-29.9,15-57.9,33.5-80.1,60.8c-9.4,11.5-16.8,24.1-18.5,39.9
		c-1.7,15,3.2,26.8,15.1,35.3c28.9,21.1,61.8,30.2,95.4,36.9c53.2,10.4,106.8,12.8,160.7,13.4c48.5,0.3,96.9,1.1,145.1,5.4
		c25,2.1,49.2,8,72.4,17.9c6.7,2.9,12.6,6.4,16.8,12.8c8.2,12.3,4.7,25.2-9.1,37.7c-17.1,15.5-36.8,26.2-57.4,34.8
		c-71.5,29.2-145.4,47.1-220.8,59.4c-71.2,11.8-142.4,21.7-214.6,19.5c-4.4,0-8.7,0-13.1,0C348.1,947.7,348.1,946.9,348.1,946.4z"/>
</g>
</svg>
